HIERARCHY
ROOT pelvis
{
  OFFSET 0 100 0
  CHANNELS 6 Xposition Yposition Zposition Zrotation Xrotation Yrotation
  JOINT pelvis_right_femur
  {
    OFFSET -10.78128 -3.44521 -0.5502486
    CHANNELS 3 Zrotation Xrotation Yrotation
    JOINT right_femur_tibia
    {
      OFFSET -0.8047443 -44.0398 -0.1307829
      CHANNELS 3 Zrotation Xrotation Yrotation
      JOINT right_tibia_foot
      {
        OFFSET 3.006224 -47.83518 -5
        CHANNELS 3 Zrotation Xrotation Yrotation
        End Site
        {
          OFFSET 0 -5 15
        }
      }
    }
  }
  JOINT pelvis_left_femur
  {
    OFFSET 10.78128 -3.44521 -0.5502486
    CHANNELS 3 Zrotation Xrotation Yrotation
    JOINT left_femur_tibia
    {
      OFFSET 0.8047443 -44.0398 -0.1307829
      CHANNELS 3 Zrotation Xrotation Yrotation
      JOINT left_tibia_foot
      {
        OFFSET -4.370144 -48.10324 -4.275266
        CHANNELS 3 Zrotation Xrotation Yrotation
        End Site
        {
          OFFSET 0 -5 15
        }
      }
    }
  }
  JOINT pelvis_spine1
  {
    OFFSET 0 6.468898 -3.129235
    CHANNELS 3 Zrotation Xrotation Yrotation
    JOINT spine1
    {
      OFFSET 0 23.15396 4.99043
      CHANNELS 3 Zrotation Xrotation Yrotation
      JOINT spine2
      {
        OFFSET 0 20.79997 -5.064912
        CHANNELS 3 Zrotation Xrotation Yrotation
        JOINT neck
        {
          OFFSET 0 14.38658 9.616178
          CHANNELS 3 Zrotation Xrotation Yrotation
          End Site
          {
            OFFSET 0 20 0
          }
        }
      }
      JOINT right_manubrium
      {
        OFFSET -5.722621 16.35077 3.967754
        CHANNELS 3 Zrotation Xrotation Yrotation
        JOINT right_clavicle
        {
          OFFSET -13.16364 1.694482 -4.693211
          CHANNELS 3 Zrotation Xrotation Yrotation
          JOINT right_humerus
          {
            OFFSET -28.5034 -0.3100689 -2.792744
            CHANNELS 3 Zrotation Xrotation Yrotation
            JOINT right_radius
            {
              OFFSET -25.15693 0.02248979 -1.271978
              CHANNELS 3 Zrotation Xrotation Yrotation
              End Site
              {
                OFFSET -15 0 0
              }
            }
          }
        }
      }
      JOINT left_manubrium
      {
        OFFSET 5.722621 16.35077 3.967754
        CHANNELS 3 Zrotation Xrotation Yrotation
        JOINT left_clavicle
        {
          OFFSET 13.16364 1.694482 -4.693211
          CHANNELS 3 Zrotation Xrotation Yrotation
          JOINT left_humerus
          {
            OFFSET 29.39168 -1.063119 -2.237045
            CHANNELS 3 Zrotation Xrotation Yrotation
            JOINT left_radius
            {
              OFFSET 24.59957 -0.9528479 0.9047498
              CHANNELS 3 Zrotation Xrotation Yrotation
              End Site
              {
                OFFSET 15 -0 -0
              }
            }
          }
        }
      }
    }
  }
}
MOTION
Frames: 10
Frame Time: 0.0416666666667
40.19938 104.288 249.5112 2.478762 -6.684513 3.60868 0.8391852 11.57034 6.335923 -2.792919e-06 38.23807 -6.375431e-08 5.458061 -10.8983 -3.20737 -4.50651 -13.50148 -10.16717 -5.237258e-06 20.30469 6.291283e-06 -6.370376 -10.8952 18.69531 -2.246568 -0.9709726 7.727291 -0.9569388 8.790731 -2.974198 2.141152 21.996 6.154069 2.148746 -17.61132 8.31883 1.64126 -20.28779 10.75331 82.06191 22.6097 -9.770185 -7.401861e-08 -9.878094e-07 24.34694 -24.49675 12.29222 12.90058 3.939553 -13.52455 -2.850563 -94.68129 25.74938 26.39228 -1.783941e-06 8.590034e-07 -10.78073 -5.536659 6.106822 19.35005
41.6333 104.9379 255.6361 2.735065 -7.208532 4.054039 0.3171016 9.318815 6.343835 -2.872682e-06 44.98808 1.009298e-06 5.038534 -9.444115 -3.881749 -5.418247 -10.17581 -11.00018 -4.362177e-06 21.35101 5.191811e-06 -5.831036 -11.38735 18.52554 -2.565956 -1.066022 7.198636 -1.02331 8.876707 -3.255768 2.117006 22.33474 6.257093 2.100461 -17.40793 8.483103 1.955293 -19.51442 10.60874 82.73507 22.94269 -10.64401 4.238248e-07 -9.583506e-07 22.93009 -23.87068 12.09585 12.27146 3.627835 -13.69279 -3.106228 -93.46845 26.40862 24.74391 -1.650303e-06 -1.476591e-07 -11.01891 -5.188184 6.477423 18.96838
43.00007 105.8323 261.4009 2.873718 -7.883408 4.732102 0.02678018 5.834689 6.154433 -3.208402e-06 50.85693 2.070821e-06 4.376134 -8.696058 -4.846979 -5.920477 -6.350291 -11.53213 -3.489467e-06 21.3498 4.401077e-06 -5.386399 -12.17555 18.15507 -2.76417 -0.8739001 6.400999 -0.9909403 8.96293 -3.728175 2.030636 22.75859 6.346041 1.935511 -17.10155 8.652568 2.187995 -18.75588 10.48807 83.80817 23.33283 -11.67974 6.091318e-07 -5.930007e-07 21.44027 -23.20676 12.05701 11.74009 3.356041 -14.09308 -3.478397 -92.0592 27.08367 22.55235 -9.397285e-07 -5.525064e-07 -11.65171 -4.777428 6.848721 18.49946
44.26391 106.8271 266.756 2.813069 -8.409587 5.563114 0.07390935 1.221176 5.85684 -3.461734e-06 54.47339 3.576113e-06 3.448764 -8.648299 -5.898071 -6.024071 -1.938666 -11.91421 -1.597764e-06 20.70153 3.342238e-06 -5.149508 -12.99762 17.50526 -2.754325 -0.541914 5.396325 -0.785411 9.014651 -4.38428 1.895477 23.0978 6.412826 1.703523 -16.84463 8.803837 2.396631 -18.00403 10.39052 85.0012 23.81136 -12.95542 9.498879e-07 -1.476575e-08 19.82816 -22.21872 12.14966 11.16503 3.171222 -14.71157 -3.873726 -90.44764 27.66751 20.0279 1.417618e-07 -9.145196e-07 -12.67325 -4.229649 7.280908 17.86961
45.4254 107.6742 271.7432 2.704834 -8.737403 6.486988 0.2862215 -3.626676 5.39105 -3.15518e-06 54.93019 3.854649e-06 2.511939 -8.789134 -6.831073 -5.862741 2.065228 -12.11782 2.461383e-07 19.06847 2.364241e-06 -5.013412 -14.1021 16.90999 -2.667401 -0.08576946 4.413077 -0.4969317 9.008063 -5.015963 1.77626 23.32535 6.469664 1.513285 -16.68016 8.917269 2.439233 -17.37341 10.31875 86.06338 24.15671 -14.14188 9.56581e-07 5.583477e-07 18.34765 -21.36675 12.24631 10.74713 3.232772 -15.43843 -4.246916 -88.89216 27.97393 17.46143 1.09653e-06 -7.689105e-07 -13.93466 -3.644738 7.67641 17.12752
46.49431 108.1798 276.5385 2.628417 -8.78144 7.438735 0.511829 -8.368718 4.767895 -2.066113e-06 52.00909 2.605988e-06 1.796423 -9.031599 -7.641403 -5.599672 5.716426 -12.15472 1.913232e-06 16.85063 1.335695e-06 -5.044284 -15.49993 16.35109 -2.600235 0.3570691 3.548544 -0.1509494 8.854438 -5.584458 1.732652 23.44408 6.48043 1.372319 -16.58759 9.005514 2.278602 -16.76542 10.20033 87.04207 24.31464 -15.3076 7.146016e-07 8.788435e-07 16.94004 -20.7391 12.35703 10.45131 3.572724 -16.21583 -4.521451 -87.42013 28.04837 14.78059 1.366797e-06 -4.803411e-07 -15.52394 -3.105261 7.988703 16.34876
47.46801 108.228 281.2604 2.608597 -8.585475 8.35052 0.6901742 -12.81127 4.073422 -1.025996e-06 46.4641 1.140986e-06 1.262689 -9.348468 -8.300793 -5.360807 9.033793 -12.14852 3.410079e-06 14.69868 -3.998107e-07 -5.121108 -17.06284 15.94162 -2.599839 0.7365481 2.832439 0.2263394 8.574736 -6.065959 1.768865 23.48494 6.445061 1.297342 -16.56036 9.066181 2.002457 -16.10949 10.03702 87.81701 24.3769 -16.45393 5.343663e-07 8.124537e-07 15.46971 -20.18298 12.40234 10.1343 4.124414 -17.00557 -4.683181 -85.95823 27.97726 11.96705 8.59627e-07 -4.652912e-07 -17.33845 -2.568367 8.297278 15.48935
48.38186 107.8243 286.182 2.669945 -8.123653 9.185622 0.6967358 -16.39807 3.23757 1.461593e-07 39.20916 -1.190162e-06 0.9990356 -9.690016 -8.796791 -5.236903 11.96887 -11.98498 4.267266e-06 13.15872 -1.421746e-06 -5.397361 -18.58793 15.50193 -2.714629 0.911508 2.32114 0.5853719 8.117142 -6.451214 1.89368 23.54137 6.346241 1.260043 -16.58302 9.113493 1.598128 -15.36836 9.766996 88.6933 24.37797 -17.63439 1.307524e-07 4.832175e-07 13.93307 -19.8748 12.42835 9.866783 4.813208 -17.74948 -4.656172 -84.73438 27.85549 9.130559 -3.565376e-07 -4.957224e-07 -19.38046 -2.114566 8.553076 14.68136
49.19625 106.9667 291.1643 2.772681 -7.702878 9.891974 0.6587601 -19.48829 2.476234 7.679096e-07 31.75123 -2.242261e-06 0.5887768 -10.37741 -9.134675 -5.17244 14.42744 -11.919 5.320681e-06 12.43567 -3.372823e-06 -5.412337 -19.90663 15.38207 -2.873524 1.062323 1.910421 0.9208547 7.694215 -6.767997 2.00582 23.64721 6.237223 1.266239 -16.59918 9.104159 1.293684 -14.60212 9.542424 89.23241 24.54468 -18.71791 1.337228e-07 4.630974e-08 12.23813 -19.36295 12.2819 9.415891 5.473113 -18.50352 -4.597945 -83.37929 27.73374 6.233008 -1.452687e-06 -1.021706e-06 -21.38959 -1.517146 8.974816 13.67398
49.91035 105.8302 296.2343 2.791665 -7.280626 10.4411 0.6790472 -21.76296 1.817076 1.112527e-06 25.50652 -2.438411e-06 0.003618997 -11.18194 -9.304885 -5.115908 16.56913 -11.88102 5.615407e-06 12.82012 -4.197767e-06 -5.437058 -20.6762 15.27205 -2.961981 1.06393 1.555312 1.210416 7.281275 -7.02844 2.094736 23.80257 6.114799 1.270988 -16.66213 9.066215 1.069832 -13.84332 9.303239 89.66825 24.80908 -19.69572 2.57688e-07 -2.434689e-07 10.4887 -18.69303 12.00306 8.84427 5.97471 -19.1477 -4.458929 -82.15369 27.65859 3.6503 -2.025968e-06 -1.551502e-06 -23.13369 -0.833176 9.502481 12.6147
